<?xml version="1.0" encoding="utf-8"?>
<!-- Generator: Adobe Illustrator 16.0.4, SVG Export Plug-In . SVG Version: 6.00 Build 0)  -->
<!DOCTYPE svg PUBLIC "-//W3C//DTD SVG 1.1//EN" "http://www.w3.org/Graphics/SVG/1.1/DTD/svg11.dtd">
<svg version="1.1" id="Layer_1" xmlns="http://www.w3.org/2000/svg" xmlns:xlink="http://www.w3.org/1999/xlink" x="0px" y="0px"
	 width="327.055px" height="404.695px" viewBox="0 0 327.055 404.695" enable-background="new 0 0 327.055 404.695"
	 xml:space="preserve">
<g>
	<polygon fill="none" points="112.53,117.168 18.834,56.393 18.834,89.203 112.857,213.449 	"/>
	<polygon fill="none" points="121.879,219.577 306.795,182.594 308.568,83.293 121.533,117.863 	"/>
	<polygon fill="none" points="18.834,105.774 18.834,294.969 113.413,379.385 112.914,230.096 	"/>
	<polygon fill="none" points="299.464,75.823 204.388,21.729 27.463,50.07 118.68,109.238 	"/>
	<polygon fill="none" points="121.913,229.77 122.43,381.618 304.079,334.654 306.612,192.829 	"/>
	<path d="M8.834,297.253v2.132l1.727,1.647l102.908,92.199l0,0l199.487-51.576l4.808-269.214l0,0L207.805,12.167l-1.367-0.792
		l-1.896,0.201L13.043,42.253l-4.209,0.633 M306.795,182.594l-184.916,36.983l-0.346-101.714l187.036-34.57L306.795,182.594z
		 M18.834,56.393l93.696,60.775l0.327,96.281L18.834,89.203V56.393z M18.834,294.969V105.774l94.08,124.322l0.499,149.289
		L18.834,294.969z M27.463,50.07l176.925-28.342l96.987,53.74l-182.695,33.77L27.463,50.07z M122.43,381.618l-0.517-151.849
		l184.699-36.941l-2.533,141.826L122.43,381.618z"/>
</g>
<g id="layer1" transform="translate(-128.125,398.84217)">
	<g id="g3777" transform="matrix(4.0816327,0,0,-4.0816327,128.125,815.48356)">
		<g id="g3779">
			<g>
				<defs>
					<polygon id="SVGID_1_" points="45.877,240.862 63.846,244.18 63.846,217.02 45.877,213.702 					"/>
				</defs>
				<clipPath id="SVGID_2_">
					<use xlink:href="#SVGID_1_"  overflow="visible"/>
				</clipPath>
				<g id="g3781" clip-path="url(#SVGID_2_)">
					<g id="g3787" transform="translate(145.458,184.2598)">
						<path id="path3789" d="M-81.801,49.407c-0.152,2.936-0.496,3.997-0.724,3.955
							c-0.232-0.043-0.304-1.698-0.609-3.204c-0.304-1.503-0.84-3.243-0.84-3.243l-1.37,0.133c0,0-0.384,2.023-0.536,4.505
							c-0.149,2.482-0.264,4.653-0.688,4.574c-0.413-0.074-0.493-2.152-0.645-4.854c-0.152-2.7-0.685-4.279-0.685-4.279
							l-1.257-0.103c0,0-0.609,2.206-0.837,9.244c-0.053,1.666-0.605,1.9-0.605,1.9s-0.553-0.438-0.605-2.123
							c-0.228-7.123-0.841-9.554-0.841-9.554l-1.254-0.361c0,0-0.536,1.381-0.688,4.026c-0.152,2.646-0.229,4.695-0.645,4.615
							c-0.42-0.077-0.536-2.291-0.692-4.829c-0.149-2.537-0.529-4.702-0.529-4.702l-1.37-0.639c0,0-0.536,1.542-0.84,2.934
							c-0.304,1.394-0.38,3.022-0.609,2.979c-0.228-0.042-0.572-1.23-0.724-4.222c-0.152-2.988-0.189-3.574-0.189-3.574
							s4.496-0.589,6.245-3.937c1.753-3.346,2.197-6.45,2.21-6.801c0.023-0.545,0.529-0.522,0.529-0.522s0.44,0.152,0.529,0.717
							c0.056,0.361,0.456,3.624,2.209,7.617c1.75,3.994,6.246,6.243,6.246,6.243S-81.649,46.476-81.801,49.407"/>
					</g>
				</g>
			</g>
		</g>
	</g>
</g>
</svg>
